<mxfile host="app.diagrams.net" modified="2021-06-11T20:15:41.841Z" agent="5.0 (Macintosh; Intel Mac OS X 10_15_7) AppleWebKit/537.36 (KHTML, like Gecko) Chrome/90.0.4430.212 Safari/537.36" etag="V_HjkqdgoqLlSuwuEvVb" version="14.7.7" type="github">
  <diagram id="uQzxyh-K94gXeEKpcOOT" name="Page-1">
    <mxGraphModel dx="1186" dy="796" grid="1" gridSize="10" guides="1" tooltips="1" connect="1" arrows="1" fold="1" page="1" pageScale="1" pageWidth="850" pageHeight="1100" math="0" shadow="0">
      <root>
        <mxCell id="0" />
        <mxCell id="1" parent="0" />
        <mxCell id="jfGP3zK27Z20HKtemW-x-33" value="" style="edgeStyle=orthogonalEdgeStyle;rounded=0;orthogonalLoop=1;jettySize=auto;html=1;" edge="1" parent="1" source="jfGP3zK27Z20HKtemW-x-8" target="jfGP3zK27Z20HKtemW-x-21">
          <mxGeometry relative="1" as="geometry" />
        </mxCell>
        <mxCell id="jfGP3zK27Z20HKtemW-x-8" value="Actor" style="shape=umlActor;verticalLabelPosition=bottom;verticalAlign=top;html=1;outlineConnect=0;" vertex="1" parent="1">
          <mxGeometry x="70" y="370" width="30" height="60" as="geometry" />
        </mxCell>
        <mxCell id="jfGP3zK27Z20HKtemW-x-21" value="Discovery Service" style="rounded=1;whiteSpace=wrap;html=1;" vertex="1" parent="1">
          <mxGeometry x="170" y="370" width="120" height="60" as="geometry" />
        </mxCell>
        <mxCell id="jfGP3zK27Z20HKtemW-x-37" value="" style="edgeStyle=orthogonalEdgeStyle;rounded=0;orthogonalLoop=1;jettySize=auto;html=1;" edge="1" parent="1" source="jfGP3zK27Z20HKtemW-x-35" target="jfGP3zK27Z20HKtemW-x-21">
          <mxGeometry relative="1" as="geometry" />
        </mxCell>
        <mxCell id="jfGP3zK27Z20HKtemW-x-35" value="&lt;span&gt;distributed hash table&amp;nbsp;&amp;nbsp;&lt;/span&gt;" style="shape=callout;whiteSpace=wrap;html=1;perimeter=calloutPerimeter;" vertex="1" parent="1">
          <mxGeometry x="170" y="250" width="120" height="80" as="geometry" />
        </mxCell>
      </root>
    </mxGraphModel>
  </diagram>
</mxfile>
